<?xml version="1.0" encoding="utf-8"?>
<!-- Generator: Adobe Illustrator 21.1.0, SVG Export Plug-In . SVG Version: 6.00 Build 0)  -->
<svg version="1.1" id="Layer_1" xmlns="http://www.w3.org/2000/svg" xmlns:xlink="http://www.w3.org/1999/xlink" x="0px" y="0px"
	 viewBox="0 0 27 27" style="enable-background:new 0 0 27 27;" xml:space="preserve">
<style type="text/css">
	.st0{fill:#FFFFFF;}
</style>
<title>ic_onCampus</title>
<desc>Created with Sketch.</desc>
<path class="st0" d="M22.6,20.2h-0.4v-7.5c0-0.2-0.2-0.4-0.4-0.4h-2v-0.4c0-0.2-0.2-0.4-0.4-0.4c-0.2,0-0.4,0.2-0.4,0.4v0.4h-0.4
	c-0.2,0-0.4,0.2-0.4,0.4v7.5h-0.8V5.6c0-0.2-0.2-0.4-0.4-0.4h-2V4c0-0.2-0.2-0.4-0.4-0.4h-0.4V2.4c0-0.2-0.2-0.4-0.4-0.4
	c-0.2,0-0.4,0.2-0.4,0.4v1.2h-1.2c-0.2,0-0.4,0.2-0.4,0.4v1.2h-2c-0.2,0-0.4,0.2-0.4,0.4v14.6H8.7v-7.5c0-0.2-0.2-0.4-0.4-0.4H8
	v-0.4c0-0.2-0.2-0.4-0.4-0.4c-0.2,0-0.4,0.2-0.4,0.4v0.4h-2c-0.2,0-0.4,0.2-0.4,0.4v7.5H4.4c-0.2,0-0.4,0.2-0.4,0.4
	C4,20.8,4.2,21,4.4,21h18.2c0.2,0,0.4-0.2,0.4-0.4C23,20.4,22.8,20.2,22.6,20.2z M15.5,17.8h-4c-0.2,0-0.4-0.2-0.4-0.4
	s0.2-0.4,0.4-0.4h4c0.2,0,0.4,0.2,0.4,0.4S15.7,17.8,15.5,17.8z M15.5,15.5h-4c-0.2,0-0.4-0.2-0.4-0.4s0.2-0.4,0.4-0.4h4
	c0.2,0,0.4,0.2,0.4,0.4S15.7,15.5,15.5,15.5z M15.5,13.1h-4c-0.2,0-0.4-0.2-0.4-0.4s0.2-0.4,0.4-0.4h4c0.2,0,0.4,0.2,0.4,0.4
	S15.7,13.1,15.5,13.1z M15.5,10.7h-4c-0.2,0-0.4-0.2-0.4-0.4s0.2-0.4,0.4-0.4h4c0.2,0,0.4,0.2,0.4,0.4S15.7,10.7,15.5,10.7z
	 M15.5,8.3h-4c-0.2,0-0.4-0.2-0.4-0.4s0.2-0.4,0.4-0.4h4c0.2,0,0.4,0.2,0.4,0.4S15.7,8.3,15.5,8.3z"/>
</svg>
